<svg id="logo" xmlns="http://www.w3.org/2000/svg" viewBox="0 0 841.9 326.7"><path class="st0" d="M160.2 4.1H118V82H80C35.8 82-.1 117.9 0 162.2s35.9 80.1 80.2 80c44.2 0 80-35.9 80-80.1V4.1zM118 162.2c-.1 21-17.2 38-38.2 37.9-21-.1-38-17.2-37.9-38.2C42 141 59 124 80 124h38v38.2zm387.4-.1c0-44.2 35.9-80 80-79.9 44.2 0 80 35.9 79.9 80s-35.9 80-80 79.9c-44.2 0-79.9-35.8-79.9-80m79.6 38.2c21.1 0 38.3-17.1 38.3-38.2s-17.1-38.3-38.2-38.3-38.3 17.1-38.3 38.2v.1c0 21.1 17.1 38.2 38.2 38.2m214.7-38.1c0-20.9-16.9-37.8-37.8-37.8s-37.8 16.9-37.8 37.8V239H682v-76.8c0-44.1 35.8-79.9 79.9-79.9 44.1 0 79.9 35.8 79.9 79.9v76.7h-42.2v-76.7m-392.7-27.9c-6.1-4-4.1-11.4 5.7-14.2 13.1-3.5 34.6-.6 53.9 7.9l20-27.2c-8.6-7.2-27.2-16.5-54.7-18.3 0 0-46-5.7-64.6 29.2 0 0-16.5 32.7 16 53 19.7 12.3 54.1 16.7 64.5 22.8 8.9 5.1 5.7 14.4-7.2 17.5-21.8 4.9-51.2-7.5-60.9-15l-20.1 27.9c17 12.9 37.1 21.1 58.2 23.8 0 0 43.2 7.5 67.1-22.4 4.4-5.7 24-42.3-15.3-63.2-19.5-10.3-52.1-15-62.6-21.8M210.5 270.2c1.8 1.1 21.4 14.5 40.4 15 45.5 1 48.7-46.8 48.7-58.1-10.5 9.3-23.9 14.6-37.9 15-43.4.5-79.1-34.3-79.6-77.7V85.1h42.1v78.1c-.8 20.8 15.4 38.4 36.3 39.2 20.8.8 38.4-15.4 39.2-36.3v-81h42.2v78.3c0 69.3 3.4 140.5-64 156.6-31.1 6.9-63.6-.9-88.1-21.2l20.7-28.6z"/></svg>
